REM DIRINDEX 1\2\5,1\2\6,1\2\7,1\2\8,1\3\9,1\3\10,1\3\11,1\4\12,1\4\13,1\4\14,1\4\15,1\4\16
REM DIRNAME cjc034,folder01,folder02,folder03,folder04,folder05,folder06,folder07,folder08,folder09,folder10,folder11,folder12,folder13,folder14,folder15
TITLE ""
FILE "1200_sec03_0934_0942.mp3" MP3
  TRACK 01 AUDIO
    TITLE "0:"
    INDEX 01 00:00:00
  TRACK 02 AUDIO
    TITLE "12:cjc034_07413"
    INDEX 01 00:00:17
  TRACK 03 AUDIO
    TITLE "0:"
    INDEX 01 00:01:34
  TRACK 04 AUDIO
    TITLE "13:cjc034_07414"
    INDEX 01 00:01:69
  TRACK 05 AUDIO
    TITLE "0:"
    INDEX 01 00:02:61
  TRACK 06 AUDIO
    TITLE "14:cjc034_07415"
    INDEX 01 00:03:21
  TRACK 07 AUDIO
    TITLE "0:"
    INDEX 01 00:04:35
  TRACK 08 AUDIO
    TITLE "15:cjc034_07416"
    INDEX 01 00:04:70
  TRACK 09 AUDIO
    TITLE "0:"
    INDEX 01 00:08:46
  TRACK 10 AUDIO
    TITLE "12:cjc034_07417"
    INDEX 01 00:10:04
  TRACK 11 AUDIO
    TITLE "0:"
    INDEX 01 00:11:07
  TRACK 12 AUDIO
    TITLE "13:cjc034_07418"
    INDEX 01 00:11:42
  TRACK 13 AUDIO
    TITLE "0:"
    INDEX 01 00:12:52
  TRACK 14 AUDIO
    TITLE "14:cjc034_07419"
    INDEX 01 00:13:10
  TRACK 15 AUDIO
    TITLE "0:"
    INDEX 01 00:14:13
  TRACK 16 AUDIO
    TITLE "15:cjc034_07420"
    INDEX 01 00:14:51
  TRACK 17 AUDIO
    TITLE "0:"
    INDEX 01 00:18:01
  TRACK 18 AUDIO
    TITLE "12:cjc034_07421"
    INDEX 01 00:19:40
  TRACK 19 AUDIO
    TITLE "0:"
    INDEX 01 00:20:55
  TRACK 20 AUDIO
    TITLE "13:cjc034_07422"
    INDEX 01 00:21:15
  TRACK 21 AUDIO
    TITLE "0:"
    INDEX 01 00:22:09
  TRACK 22 AUDIO
    TITLE "14:cjc034_07423"
    INDEX 01 00:22:44
  TRACK 23 AUDIO
    TITLE "0:"
    INDEX 01 00:23:61
  TRACK 24 AUDIO
    TITLE "15:cjc034_07424"
    INDEX 01 00:24:20
  TRACK 25 AUDIO
    TITLE "0:"
    INDEX 01 00:28:13
  TRACK 26 AUDIO
    TITLE "12:cjc034_07425"
    INDEX 01 00:29:66
  TRACK 27 AUDIO
    TITLE "0:"
    INDEX 01 00:30:71
  TRACK 28 AUDIO
    TITLE "13:cjc034_07426"
    INDEX 01 00:31:29
  TRACK 29 AUDIO
    TITLE "0:"
    INDEX 01 00:32:43
  TRACK 30 AUDIO
    TITLE "14:cjc034_07427"
    INDEX 01 00:33:09
  TRACK 31 AUDIO
    TITLE "0:"
    INDEX 01 00:34:16
  TRACK 32 AUDIO
    TITLE "15:cjc034_07428"
    INDEX 01 00:34:47
  TRACK 33 AUDIO
    TITLE "0:"
    INDEX 01 00:39:13
  TRACK 34 AUDIO
    TITLE "12:cjc034_07429"
    INDEX 01 00:40:48
  TRACK 35 AUDIO
    TITLE "0:"
    INDEX 01 00:41:53
  TRACK 36 AUDIO
    TITLE "13:cjc034_07430"
    INDEX 01 00:42:10
  TRACK 37 AUDIO
    TITLE "0:"
    INDEX 01 00:43:68
  TRACK 38 AUDIO
    TITLE "14:cjc034_07431"
    INDEX 01 00:44:26
  TRACK 39 AUDIO
    TITLE "0:"
    INDEX 01 00:45:30
  TRACK 40 AUDIO
    TITLE "15:cjc034_07432"
    INDEX 01 00:45:65
  TRACK 41 AUDIO
    TITLE "0:"
    INDEX 01 00:48:61
  TRACK 42 AUDIO
    TITLE "12:cjc034_07433"
    INDEX 01 00:50:19
  TRACK 43 AUDIO
    TITLE "0:"
    INDEX 01 00:51:26
  TRACK 44 AUDIO
    TITLE "13:cjc034_07434"
    INDEX 01 00:51:62
  TRACK 45 AUDIO
    TITLE "0:"
    INDEX 01 00:52:55
  TRACK 46 AUDIO
    TITLE "14:cjc034_07435"
    INDEX 01 00:53:13
  TRACK 47 AUDIO
    TITLE "0:"
    INDEX 01 00:54:19
  TRACK 48 AUDIO
    TITLE "15:cjc034_07436"
    INDEX 01 00:54:54
  TRACK 49 AUDIO
    TITLE "0:"
    INDEX 01 00:57:37
  TRACK 50 AUDIO
    TITLE "12:cjc034_07437"
    INDEX 01 00:58:71
  TRACK 51 AUDIO
    TITLE "0:"
    INDEX 01 01:00:04
  TRACK 52 AUDIO
    TITLE "13:cjc034_07438"
    INDEX 01 01:00:35
  TRACK 53 AUDIO
    TITLE "0:"
    INDEX 01 01:02:40
  TRACK 54 AUDIO
    TITLE "14:cjc034_07439"
    INDEX 01 01:02:73
  TRACK 55 AUDIO
    TITLE "0:"
    INDEX 01 01:04:01
  TRACK 56 AUDIO
    TITLE "15:cjc034_07440"
    INDEX 01 01:04:37
  TRACK 57 AUDIO
    TITLE "0:"
    INDEX 01 01:07:49
  TRACK 58 AUDIO
    TITLE "12:cjc034_07441"
    INDEX 01 01:09:10
  TRACK 59 AUDIO
    TITLE "0:"
    INDEX 01 01:10:30
  TRACK 60 AUDIO
    TITLE "13:cjc034_07442"
    INDEX 01 01:10:59
  TRACK 61 AUDIO
    TITLE "0:"
    INDEX 01 01:14:49
  TRACK 62 AUDIO
    TITLE "14:cjc034_07443"
    INDEX 01 01:15:13
  TRACK 63 AUDIO
    TITLE "0:"
    INDEX 01 01:16:32
  TRACK 64 AUDIO
    TITLE "15:cjc034_07444"
    INDEX 01 01:16:67
  TRACK 65 AUDIO
    TITLE "0:"
    INDEX 01 01:19:40
  TRACK 66 AUDIO
    TITLE "12:cjc034_07445"
    INDEX 01 01:21:02
  TRACK 67 AUDIO
    TITLE "0:"
    INDEX 01 01:22:11
  TRACK 68 AUDIO
    TITLE "13:cjc034_07446"
    INDEX 01 01:22:46
  TRACK 69 AUDIO
    TITLE "0:"
    INDEX 01 01:23:67
  TRACK 70 AUDIO
    TITLE "14:cjc034_07447"
    INDEX 01 01:24:28
  TRACK 71 AUDIO
    TITLE "0:"
    INDEX 01 01:25:35
  TRACK 72 AUDIO
    TITLE "15:cjc034_07448"
    INDEX 01 01:25:70
  TRACK 73 AUDIO
    TITLE "0:"
    INDEX 01 01:29:41
